<?xml version="1.0" standalone="no"?>
<!DOCTYPE svg PUBLIC "-//W3C//DTD SVG 20010904//EN"
 "http://www.w3.org/TR/2001/REC-SVG-20010904/DTD/svg10.dtd">
<svg version="1.0" xmlns="http://www.w3.org/2000/svg"
 width="2000.000000pt" height="753.000000pt" viewBox="0 0 2000.000000 753.000000"
 preserveAspectRatio="xMidYMid meet">

<g transform="translate(0.000000,753.000000) scale(0.100000,-0.100000)"
fill="#000000" stroke="none">
<path d="M13456 7195 c-545 -122 -1139 -361 -1801 -725 -740 -407 -1450 -666
-2122 -775 -260 -42 -656 -57 -898 -35 -450 42 -857 182 -1209 414 l-116 77
-181 -153 c-100 -84 -232 -195 -293 -246 -61 -52 -113 -95 -114 -97 -6 -5 182
-114 296 -170 299 -150 615 -254 917 -304 383 -64 841 -53 1246 29 579 118
1023 291 2124 830 724 355 1078 504 1449 611 373 108 599 121 957 55 394 -73
780 -238 1629 -696 829 -447 1240 -623 1666 -714 66 -14 171 -39 234 -55 250
-66 516 -98 925 -111 392 -12 769 7 910 46 49 14 71 30 395 280 36 27 146 112
245 188 99 77 186 144 193 151 8 7 -25 3 -87 -11 -261 -58 -502 -93 -798 -115
-198 -15 -676 -6 -868 16 -671 75 -1259 247 -1845 539 -201 100 -290 151 -565
321 -750 465 -1311 654 -1990 670 -175 4 -199 3 -299 -20z"/>
<path d="M12290 6206 c-367 -83 -701 -196 -1085 -366 -180 -79 -542 -261 -760
-380 -747 -411 -1506 -677 -2200 -773 -217 -30 -731 -32 -920 -4 -428 64 -823
215 -1118 429 -61 44 -71 48 -85 35 -10 -7 -89 -74 -177 -148 -321 -268 -395
-332 -395 -338 0 -12 178 -112 330 -185 343 -164 615 -249 975 -303 171 -25
704 -25 885 0 650 92 1236 304 2305 835 252 125 601 292 705 337 41 18 128 55
192 83 345 150 714 269 952 307 128 21 379 21 522 0 446 -64 862 -237 1829
-759 727 -393 1102 -555 1508 -652 83 -20 193 -47 242 -60 282 -74 554 -110
970 -125 399 -15 806 7 951 50 18 5 159 107 315 227 504 387 517 398 484 391
-16 -3 -71 -15 -121 -26 -135 -29 -379 -68 -549 -88 -220 -25 -847 -25 -1070
0 -617 71 -1184 229 -1714 477 -253 119 -381 190 -636 350 -234 147 -356 216
-563 319 -507 254 -957 370 -1487 385 -164 5 -189 4 -285 -18z"/>
<path d="M11120 5224 c-630 -149 -1066 -324 -1850 -744 -613 -328 -1092 -524
-1614 -660 -917 -238 -1696 -192 -2358 141 -82 41 -145 79 -266 161 -40 27
-78 48 -83 46 -6 -2 -140 -113 -299 -248 -251 -212 -287 -245 -272 -256 120
-83 410 -223 639 -309 375 -141 755 -203 1168 -192 410 12 757 76 1209 224
388 127 706 264 1401 603 865 423 1110 529 1520 660 328 105 559 137 818 111
494 -48 927 -223 1977 -798 194 -106 604 -312 750 -376 310 -136 555 -218 828
-276 48 -10 141 -33 207 -50 141 -38 301 -64 520 -87 207 -22 941 -26 1110 -6
194 23 225 34 323 109 240 185 460 355 579 446 73 56 131 103 129 104 -1 1
-18 -2 -37 -7 -72 -21 -401 -80 -559 -99 -412 -51 -803 -53 -1220 -5 -779 88
-1548 354 -2214 767 -530 328 -800 465 -1151 584 -342 115 -606 161 -965 168
-180 4 -238 2 -290 -11z"/>
<path d="M1095 2484 c-166 -25 -277 -58 -384 -117 -391 -213 -444 -734 -98
-969 83 -56 251 -134 447 -208 91 -34 192 -75 225 -91 150 -74 183 -200 83
-314 -114 -129 -431 -123 -533 11 -35 45 -55 105 -63 189 l-7 70 -30 -2 c-17
-1 -147 -9 -290 -18 -143 -9 -271 -18 -284 -21 -24 -5 -24 -6 -18 -107 8 -163
67 -297 180 -416 131 -136 318 -203 614 -220 251 -15 475 7 623 61 180 66 354
215 429 368 115 234 83 502 -82 686 -96 106 -232 182 -564 315 -206 82 -265
112 -298 151 -57 68 -34 164 51 214 41 24 61 29 140 32 196 9 309 -70 330
-231 l7 -50 76 6 c42 3 183 11 314 18 204 11 237 15 237 28 0 46 -45 192 -77
254 -92 175 -254 283 -508 337 -78 17 -144 22 -295 25 -107 2 -208 1 -225 -1z"/>
<path d="M4686 2433 c-3 -10 -37 -169 -76 -353 -85 -399 -166 -776 -289 -1348
-50 -232 -91 -425 -91 -427 0 -8 598 -6 604 3 2 4 16 61 30 127 14 66 115 540
226 1054 110 513 200 939 200 947 0 12 -51 14 -299 14 -277 0 -300 -1 -305
-17z"/>
<path d="M5652 2253 c-23 -109 -42 -201 -42 -206 0 -4 136 -6 302 -5 l301 3
43 195 c24 107 43 198 43 203 1 4 -135 7 -302 7 l-303 0 -42 -197z"/>
<path d="M7028 2267 c-325 -161 -327 -162 -333 -197 -3 -19 -15 -74 -26 -122
l-21 -88 -107 0 -108 0 -41 -202 c-23 -112 -42 -209 -42 -215 0 -10 28 -13
106 -13 105 0 106 0 101 -22 -11 -44 -136 -644 -146 -704 -19 -103 10 -204 87
-300 78 -99 183 -137 377 -137 108 1 382 27 393 38 5 5 91 419 88 422 -1 2
-37 -4 -80 -12 -99 -19 -136 -19 -185 1 -47 18 -66 57 -58 112 4 20 33 163 65
317 l58 280 156 3 c138 2 157 5 162 20 10 32 86 387 86 400 0 9 -38 12 -150
12 -82 0 -150 4 -150 8 0 7 88 429 109 525 6 26 6 37 -3 36 -6 0 -158 -74
-338 -162z"/>
<path d="M3160 1893 c-298 -24 -556 -164 -710 -388 -45 -65 -104 -196 -130
-285 -33 -114 -39 -329 -12 -436 94 -373 400 -549 890 -514 272 19 462 105
634 289 160 170 262 457 244 686 -14 190 -115 390 -250 498 -144 114 -396 171
-666 150z m193 -423 c51 -24 91 -60 114 -103 29 -52 25 -268 -5 -367 -70 -220
-180 -330 -332 -330 -57 0 -74 5 -120 33 -157 93 -182 326 -63 580 44 95 119
169 191 191 70 22 164 20 215 -4z"/>
<path d="M8500 1890 c-352 -34 -616 -211 -756 -505 -67 -140 -85 -218 -91
-381 -5 -120 -2 -152 15 -221 91 -358 370 -532 832 -517 123 4 157 9 265 36
296 74 520 290 624 603 94 284 51 545 -123 757 -112 135 -272 207 -511 228
-120 11 -144 11 -255 0z m221 -423 c101 -50 135 -128 126 -297 -11 -221 -107
-410 -242 -476 -47 -23 -64 -26 -127 -22 -62 3 -80 8 -119 35 -147 102 -168
328 -52 576 44 94 118 169 191 192 61 19 175 15 223 -8z"/>
<path d="M10917 1889 c-136 -15 -274 -75 -394 -171 -34 -27 -71 -61 -82 -76
-11 -15 -21 -21 -21 -14 0 12 36 182 46 215 5 16 -13 17 -280 17 -157 0 -286
-2 -286 -5 0 -3 -74 -352 -165 -775 -91 -424 -165 -773 -165 -776 0 -2 136 -3
303 -2 l302 3 22 100 c12 55 50 225 83 379 69 313 103 418 167 514 76 116 196
180 291 156 44 -11 82 -62 82 -110 0 -45 -46 -278 -134 -686 -42 -192 -76
-350 -76 -353 0 -3 135 -5 299 -5 l299 0 5 23 c25 97 201 940 218 1038 28 162
22 247 -20 334 -55 111 -153 177 -292 195 -84 11 -106 11 -202 -1z"/>
<path d="M5565 1848 c-9 -27 -325 -1512 -325 -1530 0 -17 15 -18 300 -18 165
0 300 1 300 3 0 2 74 349 165 772 91 422 165 772 165 776 0 5 -135 9 -300 9
-232 0 -302 -3 -305 -12z"/>
</g>
</svg>
