<?xml version="1.0" encoding="UTF-8"?>
<svg version="1.1" xmlns="http://www.w3.org/2000/svg" width="225" height="225">
<path d="M0 0 C74.25 0 148.5 0 225 0 C225 74.25 225 148.5 225 225 C150.75 225 76.5 225 0 225 C0 150.75 0 76.5 0 0 Z " fill="#0C75AD" transform="translate(0,0)"/>
<path d="M0 0 C0.98097656 -0.020625 1.96195313 -0.04125 2.97265625 -0.0625 C8.45014002 -0.09206806 12.4211082 0.10906267 17.125 3.25 C22.62674963 9.05740238 23.5849958 14.45572791 23.44140625 22.23828125 C22.85063829 27.86151699 20.71520216 31.57145328 16.875 35.625 C8.6504358 40.48496976 -2.24607796 40.53951675 -11.4453125 38.75 C-15.93148627 37.24892285 -18.92623485 34.89259225 -21.875 31.25 C-24.92395039 25.0451185 -24.8078985 17.71850541 -23.41015625 11.0234375 C-21.69013445 6.40278722 -18.80237208 3.97511532 -14.875 1.25 C-10.07234648 -0.33466354 -5.00136511 0.02608274 0 0 Z " fill="#F3F9F9" transform="translate(99.875,89.75)"/>
<path d="M0 0 C0 1.65 0 3.3 0 5 C-0.70608398 4.99476318 -1.41216797 4.98952637 -2.13964844 4.98413086 C-5.34308988 4.96332587 -8.5465171 4.95032859 -11.75 4.9375 C-12.86117187 4.92912109 -13.97234375 4.92074219 -15.1171875 4.91210938 C-16.18710937 4.90888672 -17.25703125 4.90566406 -18.359375 4.90234375 C-19.34389648 4.89710693 -20.32841797 4.89187012 -21.34277344 4.88647461 C-23.72869514 4.98840897 -25.72164581 5.31696643 -28 6 C-28.6814823 7.89179203 -28.6814823 7.89179203 -29 10 C-26.67128068 12.32871932 -25.88718062 12.35293562 -22.7109375 12.74609375 C-21.85113281 12.86146484 -20.99132812 12.97683594 -20.10546875 13.09570312 C-18.30871334 13.32061886 -16.51184098 13.5446027 -14.71484375 13.76757812 C-1.36563427 15.56267985 -1.36563427 15.56267985 3.0625 20.125 C4.41871862 24.28407045 4.26905293 27.81682553 3 32 C-0.74245335 36.29281414 -5.77646972 37.75767758 -11.32861328 38.17504883 C-13.88869403 38.23216877 -16.43958511 38.22380439 -19 38.1875 C-19.86367188 38.18685547 -20.72734375 38.18621094 -21.6171875 38.18554688 C-34.90532948 38.09467052 -34.90532948 38.09467052 -37 36 C-37.04063832 34.33382885 -37.042721 32.66611905 -37 31 C-36.20827393 31.00523682 -35.41654785 31.01047363 -34.60083008 31.01586914 C-31.00472816 31.03668937 -27.40863895 31.04967627 -23.8125 31.0625 C-22.56662109 31.07087891 -21.32074219 31.07925781 -20.03710938 31.08789062 C-18.2340332 31.09272461 -18.2340332 31.09272461 -16.39453125 31.09765625 C-15.28956299 31.10289307 -14.18459473 31.10812988 -13.04614258 31.11352539 C-10.24200621 31.00901923 -7.72582671 30.64097959 -5 30 C-5 28.02 -5 26.04 -5 24 C-10.27589631 22.01639468 -15.42802497 21.37972182 -20.99023438 20.87695312 C-26.58140202 20.28191994 -31.26570758 18.97787956 -35.90625 15.62109375 C-38.22180563 12.18910952 -37.67704022 7.9268333 -37 4 C-28.76143691 -5.98613708 -10.98782532 -2.51150293 0 0 Z " fill="#EFF7F7" transform="translate(62,91)"/>
<path d="M0 0 C0.70318359 -0.01611328 1.40636719 -0.03222656 2.13085938 -0.04882812 C6.64337562 -0.05305729 9.46693461 0.56921677 13.0625 3.3125 C16.44671807 7.16350677 16.51282001 10.89023955 16.3515625 15.80859375 C15.84371182 20.20767872 14.60239599 23.70053991 11.4765625 26.97265625 C7.97493048 28.91611868 4.58979026 28.82590993 0.6875 28.8125 C-0.42625 28.85503906 -0.42625 28.85503906 -1.5625 28.8984375 C-5.57206502 28.91260557 -8.20058726 28.53296446 -11.4140625 26.03125 C-14.72199265 22.4672881 -14.72199265 22.4672881 -14.9375 19.3125 C-15.00453125 18.37535156 -15.0715625 17.43820313 -15.140625 16.47265625 C-15.15609375 15.45042969 -15.1715625 14.42820312 -15.1875 13.375 C-15.21328125 12.35535156 -15.2390625 11.33570312 -15.265625 10.28515625 C-14.88480779 6.8351337 -14.05113502 5.04975256 -11.9375 2.3125 C-8.41179308 -0.38267088 -4.2568219 -0.01940211 0 0 Z " fill="#0E75AD" transform="translate(98.9375,94.6875)"/>
<path d="M0 0 C13.86 0 27.72 0 42 0 C42.495 2.475 42.495 2.475 43 5 C37.06 5 31.12 5 25 5 C25 15.89 25 26.78 25 38 C22.69 38 20.38 38 18 38 C18 27.11 18 16.22 18 5 C12.06 5 6.12 5 0 5 C0 3.35 0 1.7 0 0 Z " fill="#F4FAFA" transform="translate(129,90)"/>
<path d="M0 0 C2.31 0 4.62 0 7 0 C7 12.54 7 25.08 7 38 C4.69 38 2.38 38 0 38 C0 25.46 0 12.92 0 0 Z " fill="#FAFDFD" transform="translate(183,90)"/>
<path d="M0 0 C2.16874252 0.50603992 3.99967627 0.99983813 6 2 C5.67 3.65 5.34 5.3 5 7 C3.35 6.67 1.7 6.34 0 6 C-1.125 2.25 -1.125 2.25 0 0 Z " fill="#A5CEDB" transform="translate(200,121)"/>
<path d="M0 0 C-3.625 3 -3.625 3 -7 3 C-7.33 3.66 -7.66 4.32 -8 5 C-8.66 4.67 -9.32 4.34 -10 4 C-4.75 -1.425 -4.75 -1.425 0 0 Z " fill="#287EA9" transform="translate(95,96)"/>
</svg>
